<svg width="20" height="20" viewBox="0 0 20 20" fill="none" xmlns="http://www.w3.org/2000/svg">
<path d="M7.14054 20C7.05811 19.892 7.13876 19.7914 7.1566 19.6949C7.19097 19.509 7.2671 19.3315 7.32413 19.15C7.39068 18.9381 7.46067 18.7271 7.5193 18.5129C7.57906 18.2945 7.65979 18.0823 7.71593 17.8646C7.7896 17.5789 7.92334 17.3129 7.95647 17.0138C7.98239 16.7797 7.99341 16.781 7.75586 16.7809C5.68838 16.7809 3.62089 16.785 1.55343 16.7785C0.899482 16.7764 0.435744 16.4388 0.169076 15.8277C0.0567288 15.5703 -0.000252222 15.2937 8.39203e-07 15.002C0.00386469 10.549 -0.00483412 6.09593 0.0104522 1.64294C0.0128826 0.934941 0.34375 0.377875 0.995574 0.0795914C1.09594 0.0336626 1.20782 0.00222337 1.32916 0.00230225C7.03039 0.0060106 12.7316 0.00856071 18.4328 2.05241e-06C18.9135 -0.000719489 19.2773 0.188818 19.5761 0.551176C19.7319 0.740178 19.8297 0.961143 19.8976 1.2024C19.9973 1.55733 19.9999 1.91761 19.9999 2.281C19.9988 6.50675 20.0032 10.7325 19.9938 14.9583C19.9926 15.4851 19.8311 15.977 19.4551 16.3614C19.2687 16.552 19.0356 16.655 18.7839 16.7326C18.5969 16.7903 18.4134 16.7794 18.228 16.7796C16.1918 16.7817 14.1557 16.7809 12.1195 16.7809C11.9333 16.7809 11.9419 16.7786 11.9892 16.9554C12.0804 17.2962 12.1898 17.6311 12.2774 17.9734C12.3362 18.2029 12.4245 18.4285 12.499 18.6559C12.5552 18.8271 12.6022 19.002 12.6493 19.1765C12.6996 19.3635 12.748 19.5543 12.8209 19.7337C12.8547 19.8169 12.8548 19.8934 12.8503 19.9878C10.9494 20 9.05128 20 7.14054 20ZM12.1628 12.9204C14.5613 12.9204 16.9598 12.9204 19.3583 12.9203C19.5397 12.9203 19.5514 12.9101 19.5515 12.7413C19.5517 9.09095 19.5532 5.44059 19.5466 1.79025C19.5463 1.61709 19.5075 1.43818 19.4577 1.26614C19.413 1.11175 19.3332 0.981404 19.2359 0.861641C19.0517 0.635082 18.8176 0.474303 18.5307 0.474043C12.8342 0.468879 7.13781 0.470144 1.44139 0.470569C1.39698 0.470573 1.34965 0.467734 1.30861 0.481731C0.64221 0.709018 0.452774 1.22417 0.417481 1.7744C0.392922 2.15727 0.423395 2.54359 0.410223 2.92766C0.391772 3.46567 0.397743 4.00352 0.399595 4.54134C0.408987 7.26808 0.369772 9.99502 0.4301 12.7215C0.434339 12.9132 0.441203 12.9203 0.631282 12.9203C4.46619 12.9204 8.30109 12.9204 12.1628 12.9204ZM16.4593 13.4011C11.4883 13.4008 6.51725 13.4007 1.54623 13.3996C1.22438 13.3995 0.902478 13.3929 0.5807 13.3849C0.483545 13.3825 0.440822 13.4213 0.441368 13.522C0.441996 13.6378 0.443361 13.7544 0.432504 13.8694C0.381481 14.41 0.376127 14.9515 0.512377 15.4775C0.577861 15.7303 0.719432 15.9526 0.948798 16.1094C1.16897 16.26 1.40513 16.2699 1.64969 16.2699C5.6945 16.2707 9.73932 16.2723 13.7841 16.2713C15.3904 16.271 16.9966 16.2651 18.6028 16.2613C18.7298 16.261 18.8447 16.2154 18.9522 16.15C19.3709 15.8955 19.521 15.4774 19.546 15.0127C19.5716 14.5365 19.5487 14.0576 19.5535 13.58C19.5547 13.4595 19.5058 13.4093 19.3979 13.4046C19.255 13.3984 19.112 13.3874 18.969 13.3879C18.1414 13.3907 17.3138 13.3963 16.4593 13.4011ZM8.72903 16.7808C8.50497 16.781 8.50844 16.7821 8.44776 16.9911C8.40744 17.13 8.35077 17.2637 8.30983 17.4025C8.25473 17.5892 8.18355 17.7717 8.13671 17.9592C8.06511 18.2458 7.97906 18.5272 7.8873 18.8064C7.79841 19.077 7.73349 19.3537 7.64669 19.6425C9.21566 19.6425 10.7711 19.6425 12.3346 19.6425C12.2504 19.3231 12.1285 19.0256 12.058 18.711C12.0145 18.517 11.9416 18.3303 11.8786 18.1413C11.7428 17.7342 11.6431 17.3152 11.5078 16.9072C11.4694 16.7912 11.4226 16.7799 11.3309 16.7801C10.4723 16.7815 9.61366 16.7809 8.72903 16.7808Z" fill="#FF0000"/>
<path d="M9.64678 14.1448C9.96892 13.8873 10.3862 14.1102 10.5533 14.3681C10.6471 14.5129 10.668 14.6757 10.6984 14.8321C10.7586 15.1406 10.4744 15.5249 10.178 15.6179C9.75689 15.75 9.4077 15.4457 9.30518 15.1284C9.19324 14.7819 9.30581 14.3568 9.64678 14.1448ZM10.2603 14.8834C10.2589 14.6964 10.1282 14.5183 9.9873 14.5112C9.88908 14.5063 9.71242 14.7003 9.69224 14.8351C9.67805 14.9301 9.80752 15.1232 9.90053 15.1458C10.0736 15.1879 10.1971 15.1055 10.2603 14.8834Z" fill="#FF0000"/>
<path d="M5.06675 6.23947C5.55819 6.47529 6.03738 6.71454 6.52268 6.93965C6.62234 6.98588 6.7109 7.0586 6.82153 7.08107C6.8651 7.08991 6.89202 7.12489 6.89256 7.1711C6.89442 7.3276 6.89327 7.48413 6.89327 7.64267C6.76173 7.68063 6.6626 7.61423 6.56766 7.56752C6.22984 7.40132 5.88769 7.24479 5.54956 7.08008C5.15421 6.88751 4.75426 6.70562 4.35859 6.51398C4.16761 6.42148 3.97146 6.34027 3.77658 6.25664C3.69407 6.22123 3.64924 6.1705 3.65304 6.06954C3.65968 5.89358 3.65861 5.71705 3.65348 5.54098C3.65044 5.43687 3.69577 5.38776 3.7844 5.34493C4.19641 5.14581 4.61975 4.97259 5.03076 4.7731C5.41368 4.58724 5.80192 4.41283 6.18113 4.21846C6.37851 4.11729 6.58128 4.0275 6.78038 3.92983C6.8572 3.89215 6.89217 3.9199 6.89369 4.00013C6.89623 4.13455 6.89594 4.2691 6.89342 4.40353C6.89197 4.48116 6.83366 4.50716 6.77511 4.53543C6.24034 4.79367 5.70723 5.05558 5.17177 5.31224C4.8519 5.46556 4.52863 5.61126 4.20726 5.76121C4.19287 5.76793 4.18206 5.7829 4.159 5.80348C4.45436 5.9759 4.76733 6.08134 5.06675 6.23947Z" fill="#FF0000"/>
<path d="M10.8647 2.86159C10.9291 2.90866 10.8423 3.18516 10.8423 3.18516C10.8423 3.18516 10.7553 3.52527 10.709 3.69477C10.6565 3.8869 10.6156 4.08246 10.5694 4.2759C10.5233 4.46929 10.4877 4.66667 10.4402 4.86059C10.3972 5.03616 10.3488 5.21034 10.308 5.38644C10.2621 5.58491 10.1738 5.98236 10.1738 5.98236L10.1063 6.261C10.1063 6.261 9.97602 6.82638 9.8933 7.10213L9.69961 7.89549C9.69961 7.89549 9.6597 8.10817 9.63772 8.2151C9.62233 8.29 9.59168 8.31918 9.52316 8.31881C9.42478 8.31827 9.32639 8.31991 9.22803 8.31891C9.08415 8.31745 9.05176 8.26408 9.08949 8.12164C9.14755 7.90248 9.19818 7.68138 9.24482 7.45898C9.29305 7.22903 9.3682 7.00531 9.42416 6.77691C9.47048 6.58784 9.52034 6.39915 9.56975 6.21155C9.64028 5.94374 9.75648 5.40259 9.75648 5.40259C9.82011 5.1532 9.94648 4.65223 9.94648 4.65223C10.0015 4.39643 10.1342 3.88643 10.1342 3.88643C10.1342 3.88643 10.2093 3.55077 10.2613 3.38701C10.3053 3.24854 10.3138 3.10219 10.3637 2.96441C10.3922 2.88567 10.4332 2.8477 10.507 2.84732C10.623 2.84672 10.7389 2.85241 10.8647 2.86159Z" fill="#FF0000"/>
<path d="M13.9948 7.27395C13.687 7.41217 13.4127 7.61269 13.0671 7.66507C13.0436 7.49336 13.0516 7.34599 13.0574 7.19953C13.06 7.13392 13.1115 7.10246 13.1675 7.07531C13.8353 6.75133 14.499 6.41782 15.1715 6.10448C15.3562 6.0184 15.5439 5.93656 15.7298 5.8518C15.7551 5.84023 15.7795 5.83381 15.7932 5.78098C15.64 5.70409 15.4871 5.61888 15.3278 5.54929C15.0266 5.41771 14.7276 5.2818 14.4321 5.13699C14.0182 4.93415 13.6037 4.73254 13.187 4.53609C13.0948 4.49261 13.0422 4.44177 13.0515 4.32965C13.0595 4.233 13.0508 4.13499 13.0542 4.03776C13.0585 3.91213 13.0917 3.89399 13.2024 3.94603C13.7308 4.19451 14.2637 4.4335 14.7871 4.69286C15.2545 4.92443 15.7373 5.1193 16.2033 5.35339C16.2927 5.39834 16.3555 5.45501 16.3477 5.57495C16.3385 5.71803 16.3369 5.86291 16.3477 6.00574C16.358 6.14155 16.2932 6.20991 16.1859 6.25865C15.7377 6.46243 15.2892 6.66576 14.842 6.87216C14.5614 7.00169 14.283 7.1364 13.9948 7.27395Z" fill="#FF0000"/>
</svg>
