<svg width="22" height="21" viewBox="0 0 22 21" fill="none" xmlns="http://www.w3.org/2000/svg">
                            <path d="M14.7749 12.8643H7.28516V8.13388H14.7749V12.8643Z" stroke="white" stroke-width="1.2" stroke-miterlimit="10"/>
                            <path d="M6.03479 4.54785H1V1.00007H6.03479V4.54785Z" stroke="white" stroke-width="1.2" stroke-miterlimit="10"/>
                            <path d="M13.5244 4.54785H8.53125V1.00007H13.5244V4.54785Z" stroke="white" stroke-width="1.2" stroke-miterlimit="10"/>
                            <path d="M21.0563 4.54785H16.0215V1.00007H21.0563V4.54785Z" stroke="white" stroke-width="1.2" stroke-miterlimit="10"/>
                            <path d="M21.0563 20H16.0215V16.4522H21.0563V20Z" stroke="white" stroke-width="1.2" stroke-miterlimit="10"/>
                            <path d="M13.5244 20H8.53125V16.4522H13.5244V20Z" stroke="white" stroke-width="1.2" stroke-miterlimit="10"/>
                            <path d="M6.03479 20H1V16.4522H6.03479V20Z" stroke="white" stroke-width="1.2" stroke-miterlimit="10"/>
                            <path d="M3.53906 16.4502V12.863H7.28394" stroke="white" stroke-width="1.2" stroke-miterlimit="10"/>
                            <path d="M18.5164 16.4502V12.863H14.7715" stroke="white" stroke-width="1.2" stroke-miterlimit="10"/>
                            <path d="M3.53906 4.54561V8.13281H7.28394" stroke="white" stroke-width="1.2" stroke-miterlimit="10"/>
                            <path d="M18.5164 4.54561V8.13281H14.7715" stroke="white" stroke-width="1.2" stroke-miterlimit="10"/>
                            <path d="M11.0293 4.54561V8.13281" stroke="white" stroke-width="1.2" stroke-miterlimit="10"/>
                            <path d="M11.0293 12.863V16.4502" stroke="white" stroke-width="1.2" stroke-miterlimit="10"/>
                            </svg>        