<svg width="24" height="20" viewBox="0 0 24 20" fill="none" xmlns="http://www.w3.org/2000/svg">
                            <path d="M13.1975 8.6377L12.877 10.4559H15.6042L15.9248 8.6377H13.1975Z" fill="white" />
                            <path d="M9.10379 8.6377L8.7832 10.4559H11.5104L11.831 8.6377H9.10379Z" fill="white" />
                            <path d="M12.635 11.8184L12.3145 13.6365H15.0417L15.3623 11.8184H12.635Z" fill="white" />
                            <path d="M8.54519 11.8174L8.22461 13.6356H10.9519L11.2725 11.8174H8.54519Z" fill="white" />
                            <path d="M4.45144 11.8184L4.13086 13.6365H6.8581L7.17869 11.8184H4.45144Z" fill="white" />
                            <path d="M7.98269 15L7.66211 16.8182H10.3894L10.71 15H7.98269Z" fill="white" />
                            <path d="M3.8948 15L3.57422 16.8182H6.30146L6.62205 15H3.8948Z" fill="white" />
                            <path
                                d="M19.9304 1.36364H16.6066V0H15.243V1.36364H7.28845V0H5.9248V1.36364H3.28607L0 20H23.2164L19.9304 1.36364ZM4.43029 2.72729H5.9248V4.09093H7.28845V2.72729H15.243V4.09093H16.6066V2.72729H18.5456L18.0647 5.45458H3.94941L4.43029 2.72729ZM1.62515 18.6364L3.709 6.81818H17.8243L15.7404 18.6364H1.62515ZM19.3582 5.972L21.5913 18.6364H17.1251L19.3582 5.972Z"
                                fill="white" />
                        </svg>