<svg width="18" height="20" viewBox="0 0 18 20" fill="none" xmlns="http://www.w3.org/2000/svg">
                            <path
                                d="M14.4632 10.7422H15.4297C16.3989 10.7422 17.1875 9.95363 17.1875 8.98438V8.125C17.1875 7.15574 16.3989 6.36719 15.4297 6.36719H14.8438V6.25C14.8438 2.80375 12.04 0 8.59375 0C5.1475 0 2.34375 2.80375 2.34375 6.25V6.36719H1.75781C0.788555 6.36719 0 7.15574 0 8.125V8.98438C0 9.95363 0.788555 10.7422 1.75781 10.7422H2.38281V14.2578C2.38281 14.3324 2.38652 14.4061 2.39203 14.4792C1.06957 15.3538 0.195312 16.8539 0.195312 18.5547V20H16.9922V18.5547C16.9922 15.9029 14.8674 13.7382 12.2309 13.6734C13.2413 12.9479 14.0275 11.929 14.4632 10.7422ZM14.8423 8.71094H14.8438V7.53906H15.4297C15.7528 7.53906 16.0156 7.80191 16.0156 8.125V8.98438C16.0156 9.30746 15.7528 9.57031 15.4297 9.57031H14.7673C14.8115 9.28957 14.8368 9.00266 14.8423 8.71094ZM8.59375 1.17188C10.8157 1.17188 12.7088 2.60648 13.3958 4.59805C12.2484 3.22145 10.5217 2.34375 8.59375 2.34375C6.66578 2.34375 4.9391 3.22145 3.79172 4.59805C4.47875 2.60648 6.37176 1.17188 8.59375 1.17188ZM8.59375 3.51562C11.2143 3.51562 13.3775 5.51102 13.6441 8.06227C12.6806 8.02445 11.7575 7.71875 10.9628 7.17203C10.1314 6.60004 9.49336 5.805 9.1177 4.87277L8.57422 3.5241L8.03074 4.87277C7.65508 5.805 7.01707 6.60008 6.18563 7.17203C5.40176 7.71129 4.49289 8.01555 3.54363 8.06004C3.81121 5.50988 5.97391 3.51562 8.59375 3.51562ZM6.93672 16.0156H5.3125C4.64215 16.0156 4.05848 15.6383 3.76207 15.0851C4.17133 14.9293 4.61488 14.8438 5.07812 14.8438H6.93672C6.87168 15.0271 6.83594 15.2243 6.83594 15.4297C6.83594 15.6351 6.87168 15.8322 6.93672 16.0156ZM3.55469 13.9155V12.2865C3.94605 12.8191 4.41957 13.2878 4.9566 13.6734C4.46828 13.6854 3.99766 13.7697 3.55469 13.9155ZM1.75781 9.57031C1.43473 9.57031 1.17188 9.30746 1.17188 8.98438V8.125C1.17188 7.80191 1.43473 7.53906 1.75781 7.53906H2.34375V8.71094H2.34523C2.35063 9.00266 2.37598 9.28957 2.42023 9.57031H1.75781ZM15.8203 18.5547V18.8281H1.36719V18.5547C1.36719 17.391 1.90578 16.3508 2.7466 15.67C3.24605 16.5738 4.20883 17.1875 5.3125 17.1875H8.59375C9.56301 17.1875 10.3516 16.3989 10.3516 15.4297C10.3516 15.2243 10.3158 15.0271 10.2508 14.8438H12.1094C14.1556 14.8438 15.8203 16.5085 15.8203 18.5547ZM8.00781 15.4297C8.00781 15.1066 8.27066 14.8438 8.59375 14.8438C8.91684 14.8438 9.17969 15.1066 9.17969 15.4297C9.17969 15.7528 8.91684 16.0156 8.59375 16.0156C8.27066 16.0156 8.00781 15.7528 8.00781 15.4297ZM8.59375 13.6719C6.01016 13.6719 3.87109 11.7325 3.55574 9.23305C4.73902 9.18574 5.87297 8.80949 6.8498 8.1375C7.54258 7.6609 8.12621 7.05801 8.57422 6.3618C9.02219 7.05801 9.60582 7.6609 10.2986 8.1375C11.2862 8.81684 12.4343 9.19391 13.6316 9.23445C13.3156 11.7332 11.1768 13.6719 8.59375 13.6719Z"
                                fill="white" />
                        </svg>